<svg width="208" height="53" viewBox="0 0 208 53" fill="none" xmlns="http://www.w3.org/2000/svg">
<path d="M10.1619 38.0907V51.8549H0.414948V51.1549H4.86664V19.8008H0.414948V19.0542H14.3796C19.9094 19.1009 23.8926 22.74 23.8926 28.3392C23.8926 33.7984 20.0031 38.0907 14.3796 38.0907H10.1619ZM18.6437 24.0469C18.6437 21.7137 16.7225 19.8008 14.3792 19.8008H10.1619V37.4375H14.3796C17.0038 37.4375 18.6441 35.8047 18.6441 33.1918L18.6437 24.0469Z" fill="#231F20"/>
<path d="M40.293 37.9514V36.9718C38.9809 37.5783 37.4812 37.9514 36.0754 37.9514C30.7332 37.9514 26.5159 33.7057 26.5159 28.4796C26.5159 23.2539 30.7801 19.0078 36.0754 19.0078C37.5281 19.0078 38.9809 19.3813 40.293 19.9878V19.0078H45.5883V37.2511H50.0869V37.9509H40.293V37.9514ZM40.293 23.9071C40.293 21.6211 38.3718 19.7544 36.0754 19.7544C33.7321 19.7544 31.8108 21.6207 31.8108 23.9538C31.8108 30.0194 31.8108 26.9864 31.8108 33.0525C31.8108 35.712 33.4043 37.2515 36.0754 37.2515C38.3713 37.2515 40.293 35.3852 40.293 33.0525V23.9071Z" fill="#231F20"/>
<path d="M61.239 38.0907V51.8549H51.492V51.1549H55.9437V19.8008H51.492V19.0542H65.4566C70.9864 19.1009 74.9696 22.74 74.9696 28.3392C74.9696 33.7984 71.0802 38.0907 65.4566 38.0907H61.239ZM69.7208 24.0469C69.7208 21.7137 67.7995 19.8008 65.4562 19.8008H61.2386V37.4375H65.4562C68.0804 37.4375 69.7208 35.8047 69.7208 33.1918V24.0469Z" fill="#231F20"/>
<path d="M82.8878 28.8532V33.0526C82.8878 35.3386 84.7622 37.2516 87.1055 37.2516C88.0898 37.2516 89.355 36.9719 90.1982 36.4116L90.1513 36.4583C89.1201 36.4583 88.2769 35.5717 88.2769 34.5454C88.2769 33.5186 89.1205 32.6791 90.1513 32.6791C91.1821 32.6791 92.0257 33.5191 92.0257 34.5454C92.0257 37.1582 89.0267 37.9511 87.1051 37.9511C81.6222 37.9511 77.5925 33.8917 77.5925 28.4793C77.5925 23.3003 81.9035 19.0542 87.1051 19.0542C92.6348 19.0542 96.5711 23.58 96.618 28.8524H82.8878V28.8532ZM91.3227 23.9539C91.3227 21.5278 89.5421 19.7545 87.1051 19.7545C84.6215 19.7545 82.8874 21.5278 82.8874 23.9539C82.8874 25.1203 82.8874 26.8932 82.8874 28.1533H91.3223V23.9539H91.3227Z" fill="#231F20"/>
<path d="M111.613 23.9537C111.613 22.5072 112.784 21.2942 114.237 21.2942C114.706 21.2942 115.174 21.4342 115.549 21.6673C114.846 20.3608 113.628 19.7543 111.988 19.7543C109.457 19.7543 107.771 21.4809 107.771 23.9537V37.2514H112.129V37.9513H98.0235V37.2514H102.476V19.7543H98.0235V19.0077C101.21 19.0077 104.537 19.0077 107.771 19.0544V21.3405C108.568 19.801 110.067 19.0073 111.988 19.0073C114.847 19.0073 116.909 21.107 116.909 23.9533C116.909 25.3998 115.69 26.5662 114.238 26.5662C112.784 26.5666 111.613 25.4002 111.613 23.9537Z" fill="#231F20"/>
<path d="M133.078 27.1849C133.459 27.1849 133.935 27.6588 133.935 29.6965C133.935 34.4834 131.031 38.5593 126.843 38.5593C121.607 38.5593 119.179 35.242 119.179 29.8391V12.0185C119.179 4.29314 120.465 0.217285 124.987 0.217285C128.128 0.217285 129.699 2.25542 129.699 6.56802C129.699 13.8195 125.844 17.1843 123.511 18.5589V31.2607C123.511 34.9577 125.082 36.7112 127.414 36.7112C129.27 36.7112 132.365 34.7681 132.365 27.4691C132.365 27.4691 132.46 27.1849 133.078 27.1849ZM127.652 6.61554C127.652 3.39245 126.7 2.06578 125.367 2.06578C123.939 2.06578 123.511 3.29783 123.511 16.5687C125.272 15.2887 127.652 12.5399 127.652 6.61554Z" fill="#231F20"/>
<path d="M158.116 27.185C158.496 27.185 158.972 27.6589 158.972 29.6966C158.972 34.9574 156.592 38.5594 152.356 38.5594C148.929 38.5594 146.787 36.9005 145.787 34.0571C144.597 36.9484 142.36 38.5594 138.98 38.5594C135.172 38.5594 132.412 36.237 132.412 31.6872V19.886C132.412 17.8483 133.601 16.9951 134.886 16.9951C136.219 16.9951 136.695 17.6587 136.695 17.6587V31.2608C136.695 35.4317 137.838 36.9009 139.551 36.9009C142.074 36.9009 145.168 33.8204 145.168 27.1375V19.886C145.168 17.8483 146.597 16.9951 147.882 16.9951C149.215 16.9951 149.69 17.6587 149.738 17.6587V31.2608C149.738 34.9578 151.023 36.7113 152.927 36.7113C154.593 36.7113 157.402 35.2421 157.402 27.4692C157.402 27.4692 157.449 27.185 158.116 27.185Z" fill="#231F20"/>
<path d="M158.019 21.9237C158.067 18.9853 160.542 16.9946 165.968 16.9946C171.156 16.9946 174.013 19.222 174.013 21.4023C174.013 22.6347 172.918 23.2983 171.966 23.2983C170.824 23.2983 170.538 22.7293 170.538 22.7293C170.538 22.7293 170.824 22.3976 170.824 21.6394C170.824 19.933 168.253 18.8431 166.159 18.8431C163.778 18.8431 161.875 19.6488 161.875 21.4498C161.875 26.6156 175.012 25.2414 175.012 32.5399C175.012 36.7583 170.824 38.5589 165.445 38.5589C159.542 38.5589 155.734 34.6727 155.734 29.8857C155.734 28.0848 156.543 27.0424 157.638 27.0424C158.78 27.0424 158.971 27.6113 158.971 27.6113C158.971 27.6113 158.685 28.3219 158.685 29.3647C158.685 33.3931 161.16 36.7108 165.682 36.7108C169.014 36.7108 170.728 35.668 170.776 33.1559C170.824 27.6588 157.876 29.2701 158.019 21.9237Z" fill="#231F20"/>
<path d="M182.104 19.3171V31.2605C182.104 34.9575 184.722 36.7109 187.055 36.7109C190.91 36.7109 192.767 34.0568 192.767 27.4689C192.767 27.4689 192.862 27.1846 193.481 27.1846C193.861 27.1846 194.338 27.6585 194.338 29.6962C194.338 34.3885 192.148 38.559 186.484 38.559C181.391 38.559 177.821 35.9523 177.821 30.2652V12.8718C177.821 10.8337 179.011 9.98047 180.296 9.98047C181.628 9.98047 182.104 10.644 182.104 10.644V17.6587H188.625C190.006 17.6587 190.244 18.1801 190.244 19.3176L182.104 19.3171Z" fill="#231F20"/>
</svg>
